<svg id="visual" viewBox="0 0 3840 2160" width="3840" height="2160" xmlns="http://www.w3.org/2000/svg" xmlns:xlink="http://www.w3.org/1999/xlink" version="1.1"><rect x="0" y="0" width="3840" height="2160" fill="#001220"></rect><path d="M0 1097L91.5 1105.3C183 1113.7 366 1130.3 548.8 1086.2C731.7 1042 914.3 937 1097.2 928C1280 919 1463 1006 1645.8 1006.5C1828.7 1007 2011.3 921 2194.2 898.8C2377 876.7 2560 918.3 2742.8 987C2925.7 1055.7 3108.3 1151.3 3291.2 1171.3C3474 1191.3 3657 1135.7 3748.5 1107.8L3840 1080L3840 0L3748.5 0C3657 0 3474 0 3291.2 0C3108.3 0 2925.7 0 2742.8 0C2560 0 2377 0 2194.2 0C2011.3 0 1828.7 0 1645.8 0C1463 0 1280 0 1097.2 0C914.3 0 731.7 0 548.8 0C366 0 183 0 91.5 0L0 0Z" fill="#ff0066"></path><path d="M0 1047L91.5 1016.8C183 986.7 366 926.3 548.8 875.8C731.7 825.3 914.3 784.7 1097.2 800.2C1280 815.7 1463 887.3 1645.8 905.8C1828.7 924.3 2011.3 889.7 2194.2 854.5C2377 819.3 2560 783.7 2742.8 775.5C2925.7 767.3 3108.3 786.7 3291.2 790.5C3474 794.3 3657 782.7 3748.5 776.8L3840 771L3840 0L3748.5 0C3657 0 3474 0 3291.2 0C3108.3 0 2925.7 0 2742.8 0C2560 0 2377 0 2194.2 0C2011.3 0 1828.7 0 1645.8 0C1463 0 1280 0 1097.2 0C914.3 0 731.7 0 548.8 0C366 0 183 0 91.5 0L0 0Z" fill="#ff4851"></path><path d="M0 730L91.5 708.2C183 686.3 366 642.7 548.8 645.3C731.7 648 914.3 697 1097.2 694.5C1280 692 1463 638 1645.8 649.7C1828.7 661.3 2011.3 738.7 2194.2 745.2C2377 751.7 2560 687.3 2742.8 635.5C2925.7 583.7 3108.3 544.3 3291.2 548.8C3474 553.3 3657 601.7 3748.5 625.8L3840 650L3840 0L3748.5 0C3657 0 3474 0 3291.2 0C3108.3 0 2925.7 0 2742.8 0C2560 0 2377 0 2194.2 0C2011.3 0 1828.7 0 1645.8 0C1463 0 1280 0 1097.2 0C914.3 0 731.7 0 548.8 0C366 0 183 0 91.5 0L0 0Z" fill="#ff6e42"></path><path d="M0 468L91.5 488.3C183 508.7 366 549.3 548.8 566.7C731.7 584 914.3 578 1097.2 549C1280 520 1463 468 1645.8 437C1828.7 406 2011.3 396 2194.2 402.5C2377 409 2560 432 2742.8 444.7C2925.7 457.3 3108.3 459.7 3291.2 452C3474 444.3 3657 426.7 3748.5 417.8L3840 409L3840 0L3748.5 0C3657 0 3474 0 3291.2 0C3108.3 0 2925.7 0 2742.8 0C2560 0 2377 0 2194.2 0C2011.3 0 1828.7 0 1645.8 0C1463 0 1280 0 1097.2 0C914.3 0 731.7 0 548.8 0C366 0 183 0 91.5 0L0 0Z" fill="#ff8f3a"></path><path d="M0 266L91.5 263.5C183 261 366 256 548.8 256.2C731.7 256.3 914.3 261.7 1097.2 241.2C1280 220.7 1463 174.3 1645.8 158.3C1828.7 142.3 2011.3 156.7 2194.2 176.8C2377 197 2560 223 2742.8 223.7C2925.7 224.3 3108.3 199.7 3291.2 186C3474 172.3 3657 169.7 3748.5 168.3L3840 167L3840 0L3748.5 0C3657 0 3474 0 3291.2 0C3108.3 0 2925.7 0 2742.8 0C2560 0 2377 0 2194.2 0C2011.3 0 1828.7 0 1645.8 0C1463 0 1280 0 1097.2 0C914.3 0 731.7 0 548.8 0C366 0 183 0 91.5 0L0 0Z" fill="#fbae3c"></path></svg>